<?xml version="1.0" standalone="no"?>
<!DOCTYPE svg PUBLIC "-//W3C//DTD SVG 20010904//EN"
 "http://www.w3.org/TR/2001/REC-SVG-20010904/DTD/svg10.dtd">
<svg version="1.0" xmlns="http://www.w3.org/2000/svg" width="800.000000pt" height="346.000000pt" viewBox="0 0 800.000000 346.000000" preserveAspectRatio="xMidYMid meet">
  <g transform="translate(0.000000,346.000000) scale(0.100000,-0.100000)" fill="#FFFFFF" stroke="#FFFFFF">
<path d="M1200 2415 c0 -11 11 -15 43 -15 51 0 104 -30 117 -66 7 -17 9 -229
8 -580 l-3 -554 -27 -26 c-21 -21 -39 -28 -82 -32 -39 -3 -56 -9 -56 -18 0
-12 87 -14 529 -14 l529 0 6 38 c3 20 13 116 21 212 8 96 17 187 20 203 4 21
1 27 -14 27 -15 0 -25 -18 -46 -82 -38 -116 -81 -193 -133 -239 -65 -57 -124
-71 -278 -67 -124 3 -126 3 -150 31 l-25 29 3 539 3 539 27 27 c22 22 39 27
88 31 42 3 60 8 60 18 0 12 -55 14 -320 14 -278 0 -320 -2 -320 -15z"/>
<path d="M4200 2050 c0 -5 13 -10 29 -10 17 0 42 -10 58 -24 l28 -24 0 -395
c0 -386 -1 -396 -21 -424 -12 -16 -36 -32 -57 -37 -70 -18 -36 -26 108 -26 80
0 145 4 145 8 0 4 -20 13 -45 20 -78 21 -76 9 -73 431 l3 371 161 -412 c89
-227 166 -414 171 -415 5 -2 81 184 168 414 l160 417 3 -385 3 -384 -26 -23
c-16 -13 -39 -22 -61 -22 -19 0 -34 -4 -34 -10 0 -6 82 -10 225 -10 143 0 225
4 225 10 0 6 -11 10 -25 10 -40 0 -73 21 -85 53 -14 41 -14 763 0 804 12 32
45 53 85 53 14 0 25 5 25 10 0 6 -64 10 -173 10 l-174 0 -114 -305 c-62 -168
-116 -305 -120 -305 -3 0 -59 137 -124 305 l-118 305 -174 0 c-109 0 -173 -4
-173 -10z"/>
<path d="M3467 1863 c-21 -57 -71 -123 -114 -153 -18 -13 -33 -26 -33 -31 0
-5 20 -9 45 -9 l44 0 3 -261 3 -261 33 -29 c39 -35 77 -37 123 -6 36 24 79 91
66 103 -4 4 -18 -5 -31 -19 -41 -44 -80 -34 -96 24 -6 18 -10 127 -10 241 l0
208 65 0 c58 0 65 2 65 20 0 18 -7 20 -65 20 l-65 0 0 100 c0 55 -4 100 -8
100 -4 0 -15 -21 -25 -47z"/>
<path d="M2495 1708 c-44 -15 -94 -67 -107 -110 -9 -31 -8 -41 6 -63 18 -27
54 -33 74 -13 7 7 12 34 12 60 0 79 52 116 125 88 32 -12 55 -64 55 -123 l0
-44 -104 -50 c-57 -28 -119 -67 -139 -87 -70 -70 -73 -172 -7 -238 59 -59 123
-51 209 28 l38 34 7 -32 c8 -39 33 -68 58 -68 46 0 128 70 128 110 0 17 -3 17
-25 -5 -30 -31 -53 -32 -60 -2 -2 12 -6 114 -7 227 -3 234 -7 247 -81 281 -46
21 -133 24 -182 7z m138 -495 c-67 -54 -120 -54 -154 0 -15 23 -19 43 -16 75
6 56 41 93 127 137 l65 33 3 -112 c3 -111 3 -111 -25 -133z"/>
<path d="M3044 1709 c-48 -14 -120 -84 -151 -147 -25 -52 -28 -67 -28 -162 1
-87 5 -114 23 -155 94 -208 322 -203 401 10 34 92 23 137 -13 50 -24 -60 -73
-97 -134 -102 -62 -6 -107 24 -147 97 -25 47 -30 69 -33 147 -4 84 -2 98 21
146 36 72 94 103 152 81 20 -8 45 -56 45 -87 0 -31 35 -67 65 -67 33 0 59 40
50 78 -8 37 -56 89 -100 107 -38 16 -103 18 -151 4z"/>
<path d="M3814 1696 c-61 -28 -107 -82 -135 -156 -45 -119 -34 -238 31 -338
30 -48 49 -65 94 -87 49 -24 65 -27 116 -22 150 13 243 138 244 327 1 74 -3
93 -27 141 -68 139 -198 193 -323 135z m167 -65 c54 -61 74 -133 74 -271 -1
-99 -4 -121 -23 -158 -43 -81 -132 -94 -190 -28 -53 61 -75 136 -76 261 -1 85
3 121 18 158 37 97 129 115 197 38z"/>
<path d="M5564 1696 c-61 -28 -107 -82 -135 -156 -45 -119 -34 -238 31 -338
30 -48 49 -65 94 -87 49 -24 65 -27 116 -22 150 13 243 138 244 327 1 74 -3
93 -27 141 -68 139 -198 193 -323 135z m167 -65 c54 -61 74 -133 74 -271 -1
-99 -4 -121 -23 -158 -43 -81 -132 -94 -190 -28 -53 61 -75 136 -76 261 -1 85
3 121 18 158 37 97 129 115 197 38z"/>
<path d="M6011 1687 c-78 -34 -107 -62 -54 -51 53 11 58 -6 61 -235 3 -229 -1
-250 -56 -266 -61 -18 -31 -25 108 -25 87 0 140 4 140 10 0 6 -8 10 -19 10
-10 0 -30 9 -45 21 l-26 20 0 180 c0 158 2 184 19 218 33 64 45 68 87 32 43
-38 73 -37 92 2 24 51 -11 117 -63 117 -30 0 -90 -51 -115 -99 l-19 -36 -1 68
c0 80 -2 81 -109 34z"/>
<path d="M6471 1694 c-94 -47 -144 -146 -144 -289 -1 -100 23 -180 71 -236 87
-101 223 -104 309 -6 34 39 77 142 68 165 -7 19 -11 15 -38 -39 -31 -61 -67
-84 -131 -84 -101 0 -182 90 -193 216 l-6 59 188 0 187 0 -7 47 c-24 160 -164
236 -304 167z m119 -30 c34 -20 55 -57 63 -106 l6 -38 -125 0 c-140 0 -140 -1
-104 77 20 46 69 83 108 83 13 0 36 -7 52 -16z"/>
<path d="M6904 1256 c-26 -26 -34 -42 -34 -71 0 -52 53 -105 105 -105 52 0
105 53 105 105 0 52 -53 105 -105 105 -29 0 -45 -8 -71 -34z m143 -11 c50 -58
15 -141 -64 -152 -37 -5 -45 -2 -73 25 -22 23 -30 40 -30 67 0 27 8 44 30 67
28 27 36 30 73 25 28 -4 49 -14 64 -32z"/>
<path d="M6932 1178 c0 -40 3 -58 5 -40 5 41 36 44 57 5 8 -16 15 -24 16 -20
0 5 -4 17 -10 27 -7 13 -6 21 5 30 32 27 3 70 -46 70 l-29 0 2 -72z m66 30
c-2 -17 -11 -24 -30 -26 -24 -3 -28 0 -28 22 0 22 4 26 31 26 26 0 30 -3 27
-22z"/>
</g>
</svg>
